Coordinates
version=1
nRows=22
nColumns=24
inDegrees=yes

Units are S.I. units (second, meters, Newtons, ...)
Angles are in degrees.

endheader
time	pelvis_tilt	pelvis_list	pelvis_rotation	pelvis_tx	pelvis_ty	pelvis_tz	hip_flexion_r	hip_adduction_r	hip_rotation_r	knee_angle_r	ankle_angle_r	subtalar_angle_r	mtp_angle_r	hip_flexion_l	hip_adduction_l	hip_rotation_l	knee_angle_l	ankle_angle_l	subtalar_angle_l	mtp_angle_l	lumbar_extension	lumbar_bending	lumbar_rotation
      4.99000000	      6.95655312	     -4.46731133	      0.46839145	      0.74084968	      0.92368055	     -0.16930348	    -22.65578940	      7.35401591	      4.07698906	     -8.30462999	     18.44713105	     -0.30416340	      0.00000000	     10.21078550	     -4.18065985	     -1.09626784	      4.48951100	      4.74812293	      2.12494482	      0.00000000	    -27.16251398	      5.27666862	      1.67940171
      5.00000000	      7.12436548	     -4.26609142	      0.30813421	      0.75444190	      0.92292711	     -0.17104834	    -22.90968308	      6.93794682	      3.99794419	     -9.83242242	     18.19157424	      0.14727642	      0.00000000	      9.64164810	     -3.76737488	     -1.18604575	      4.52478891	      4.83531335	      2.39002110	      0.00000000	    -27.26964124	      5.07639925	      1.42536313
      5.01000000	      7.23023733	     -3.98598033	      0.18305453	      0.76821424	      0.92227255	     -0.17278616	    -23.01496164	      6.46885716	      3.93461403	    -11.50628613	     17.63739853	      0.34099244	      0.00000000	      9.20723861	     -3.25588363	     -1.29274782	      4.10198043	      4.63122114	      2.33546946	      0.00000000	    -27.27116072	      4.77771847	      1.08357083
      5.02000000	      7.39920623	     -3.62493856	      0.04978297	      0.78212896	      0.92189551	     -0.17457490	    -23.05961471	      5.90168573	      3.72164851	    -13.40579415	     16.85314355	      0.60917632	      0.00000000	      8.71039049	     -2.66028737	     -1.41091139	      3.43247273	      4.02721600	      1.99147226	      0.00000000	    -27.31789469	      4.38063249	      0.69767912
      5.03000000	      7.64328817	     -3.21024968	     -0.06245467	      0.79617312	      0.92182780	     -0.17651268	    -23.03152784	      5.25648878	      3.24616207	    -15.56238853	     15.76338142	      1.04783292	      0.00000000	      8.08073212	     -2.00919073	     -1.26157362	      2.73542742	      2.88590764	      0.97186580	      0.00000000	    -27.42045688	      3.94975379	      0.28483675
      5.04000000	      7.82375489	     -2.73598474	     -0.18079865	      0.81038458	      0.92200397	     -0.17845877	    -22.78540243	      4.53587595	      2.68260461	    -17.95863792	     14.21887479	      1.37853371	      0.00000000	      7.42114919	     -1.32186067	     -0.76532198	      2.15618576	      1.22497477	     -0.63120310	      0.00000000	    -27.39386009	      3.43869622	     -0.13093681
      5.05000000	      8.03255546	     -2.22867604	     -0.28553751	      0.82462158	      0.92261527	     -0.18045387	    -22.39298568	      3.75795055	      2.00344971	    -20.60176330	     12.15284085	      1.68953011	      0.00000000	      6.69167354	     -0.61707982	     -0.10150889	      1.63136400	     -0.62411219	     -2.44988429	      0.00000000	    -27.37438459	      2.89527088	     -0.53481119
      5.06000000	      8.29398526	     -1.70987636	     -0.36044305	      0.83875619	      0.92372868	     -0.18241522	    -21.86229088	      2.96048798	      1.27504269	    -23.48335600	      9.54255232	      1.90517816	      0.00000000	      5.88395136	      0.07074523	      0.76691216	      1.13154207	     -2.40693788	     -4.28351655	      0.00000000	    -27.41810378	      2.32920761	     -0.86879539
      5.07000000	      8.58885554	     -1.18158097	     -0.46938144	      0.85276442	      0.92531264	     -0.18435557	    -21.15233760	      2.11514736	      0.61064998	    -26.61847112	      6.52027583	      2.13273100	      0.00000000	      5.05346012	      0.76308672	      1.53270815	      0.56807378	     -3.78682898	     -5.88903793	      0.00000000	    -27.49640883	      1.75773561	     -1.24060695
      5.08000000	      8.89632434	     -0.71545378	     -0.56544313	      0.86636126	      0.92723918	     -0.18608263	    -20.21996945	      1.37463648	      0.13804571	    -29.98726142	      3.12786257	      2.04560942	      0.00000000	      4.22248427	      1.35565432	      2.47759324	     -0.05418716	     -4.63613723	     -7.21104546	      0.00000000	    -27.65448404	      1.21936117	     -1.48286004
      5.09000000	      9.13691335	     -0.21763408	     -0.73373614	      0.87958747	      0.92928954	     -0.18756406	    -18.95788023	      0.62026551	     -0.10224174	    -33.62755268	     -0.30430775	      1.80476203	      0.00000000	      3.48389691	      1.97333773	      3.21595227	     -0.75159297	     -4.87731457	     -8.04716616	      0.00000000	    -27.77513438	      0.59801158	     -1.63270662
      5.10000000	      9.40254664	      0.40605819	     -0.96719548	      0.89247857	      0.93137732	     -0.18876114	    -17.48811954	     -0.21687144	     -0.16306800	    -37.48582752	     -3.61658262	      1.27166825	      0.00000000	      2.70631235	      2.72288373	      3.65502378	     -1.44335825	     -4.59102881	     -8.34648429	      0.00000000	    -27.94921638	     -0.20345166	     -1.81516015
      5.11000000	      9.32922781	      0.97916363	     -1.32150894	      0.90485963	      0.93293440	     -0.18954733	    -15.37534945	     -0.90990553	      0.12502706	    -41.58332572	     -6.80406299	      0.15254422	      0.00000000	      2.23033723	      3.38827960	      4.18086246	     -2.00449354	     -4.06496573	     -8.68546222	      0.00000000	    -27.78253421	     -1.02019123	     -1.77797158
      5.12000000	      9.12015553	      1.71957988	     -1.80475637	      0.91696863	      0.93402747	     -0.18997999	    -12.89563013	     -1.71545052	      0.54203306	    -45.81699030	     -9.72170323	     -1.52575342	      0.00000000	      1.82648483	      4.21842394	      4.36174796	     -2.38640576	     -3.35903007	     -8.72004452	      0.00000000	    -27.44764962	     -2.07824292	     -1.74629358
      5.13000000	      8.61128398	      2.64207558	     -2.37765896	      0.92893514	      0.93439648	     -0.19014449	     -9.91374765	     -2.63557166	      1.05965059	    -50.09131428	    -12.31371327	     -3.71622898	      0.00000000	      1.71510430	      5.22035561	      4.05162070	     -2.65294527	     -2.42260341	     -8.21119026	      0.00000000	    -26.70793323	     -3.37067490	     -1.69260034
      5.14000000	      8.25365580	      3.51552433	     -3.09765313	      0.94080223	      0.93464867	     -0.18999483	     -7.02749741	     -3.41324348	      1.80299348	    -54.10428648	    -14.82882470	     -6.62126050	      0.00000000	      1.23215235	      6.14754537	      3.79865482	     -2.48875184	     -1.62937446	     -7.90309763	      0.00000000	    -26.10163816	     -4.65074182	     -1.45870216
      5.15000000	      7.68801448	      4.46232641	     -3.79854544	      0.95257963	      0.93435757	     -0.18994510	     -3.87589808	     -4.18644405	      2.57828370	    -57.86918665	    -16.72761313	     -9.62413673	      0.00000000	      0.95587855	      7.16337464	      3.24775232	     -2.21653902	     -0.82252157	     -7.43691420	      0.00000000	    -25.20534769	     -5.94373045	     -1.38316465
      5.16000000	      7.46327040	      5.13771220	     -4.56091222	      0.96451270	      0.93448556	     -0.18978255	     -1.21578813	     -4.58625923	      3.49384891	    -61.05215070	    -18.24702996	    -12.71725551	      0.00000000	      0.02832226	      7.90218681	      3.05062160	     -1.43705224	     -0.32398579	     -7.37262062	      0.00000000	    -24.63043753	     -6.92853448	     -1.18779592
      5.17000000	      7.12683970	      5.61656164	     -5.22476357	      0.97632803	      0.93454019	     -0.18980738	      1.45821820	     -4.70666842	      4.34039249	    -63.75506251	    -18.83625979	    -15.36569712	      0.00000000	     -0.84950803	      8.44651012	      2.96703412	     -0.52379137	      0.01874868	     -7.44912838	      0.00000000	    -23.93814078	     -7.61043876	     -0.99794644
      5.18000000	      6.84097658	      5.79188613	     -5.78503363	      0.98812629	      0.93486003	     -0.18998177	      3.89203077	     -4.46563318	      5.06198014	    -65.87224040	    -18.51871378	    -17.40333713	      0.00000000	     -1.89330281	      8.68930225	      3.06907139	      0.54373695	      0.21754404	     -7.73470309	      0.00000000	    -23.31579414	     -7.87762849	     -0.87490296
      5.19000000	      6.55137948	      5.66273337	     -6.14850453	      0.99984804	      0.93539056	     -0.19043094	      6.11289834	     -3.90837210	      5.50144863	    -67.39894836	    -17.23556394	    -18.72794681	      0.00000000	     -3.04535375	      8.60742816	      3.64573694	      1.74917646	      0.14240438	     -8.53729009	      0.00000000	    -22.74617968	     -7.70516138	     -0.84686102
      5.20000000	      6.40936420	      5.23494613	     -6.46398657	      1.01139280	      0.93638437	     -0.19087233	      7.97803429	     -3.05501529	      5.78669090	    -68.33010587	    -15.25558056	    -19.40182716	      0.00000000	     -4.32571983	      8.24428717	      3.85778441	      2.86073985	      0.18270302	     -8.94737998	      0.00000000	    -22.43339564	     -7.18467605	     -0.82867653
